# xmcd CD database file
#
# Track frame offsets:
#	182
#	12825
#	26265
#	37222
#	49272
#	62882
#	76770
#	91012
#	105565
#	118102
#	132142
#	146607
#	160077
#	173770
#	188355
#	204202
#	219785
#	234555
#	248705
#	261522
#	275462
#	287190
#	301572
#
# Disc length: 4218 seconds
#
# Revision: 0
# Processed by: cddbd v1.5.2PL0 Copyright (c) Steve Scherf et al.
# Submitted via: CDex 1.70beta2
#
DISCID=2e107817
DTITLE=Jazz - New Orleans Style - Jazz - New Orleans Style
DYEAR=1996
DGENRE=Jazz
TTITLE0=Clarinet Marmalade Blues /Original Dixieland Jazz Band
TTITLE1=Sensation Rag /Original Dixieland Jazz Band
TTITLE2=Tiger Rag /New Orleans Rhythm Kings
TTITLE3=Where Did You Stay Last Night? /King Oliver's Jazz Band
TTITLE4=Riverside Blues /King Oliver's Jazz Band
TTITLE5=New Orleans Wiggle /Piron's New Orleans Orchestra
TTITLE6=New Orleans Blues /Johnny de Droit and his New Orleans Jazz Orchestra
TTITLE7=Christine /Original Crescent City Jazzers
TTITLE8=I Wonder Where My Easy Rider's Riding Now /Johnny Bayersdorffer and his Jazzola Novelty Orchestra
TTITLE9=Pussy Cat Rag /Halfway House Orchestra
TTITLE10=Cabaret Echoes /Anthony Parenti's Famous Melody Boys
TTITLE11=Dirty Rag /Brownlee's Orchestra of New Orleans
TTITLE12=Golden Leaf Strut /Original New Orleans Rhythm Kings
TTITLE13=Perdido Street Blues /New Orleans Wanderers
TTITLE14=Doctor Jazz /Jelly-Roll Morton's Red Hot Peppers
TTITLE15=Franklin Street Blues /Louis Dumaine's Jazzola Eight
TTITLE16=As You Like It /Celestin's Original Tuxedo Jazz Orchestra
TTITLE17=That's A Plenty /New Orleans Owls
TTITLE18=New Orleans Stomp /Johnny Dodds' Black Bottom Stompers
TTITLE19=High Society /Monk Hazel and his Bienville Roof Orchestra
TTITLE20=Astoria Strut /Jones and Collins Astoria Hot Eight
TTITLE21=Burning The Iceberg /Jelly-Roll Morton and his Orchestra
TTITLE22=I've Found A New Baby /New Orleans Feetwarmers
EXTD=YEAR: 1996
EXTT0=
EXTT1=
EXTT2=
EXTT3=
EXTT4=
EXTT5=
EXTT6=
EXTT7=
EXTT8=
EXTT9=
EXTT10=
EXTT11=
EXTT12=
EXTT13=
EXTT14=
EXTT15=
EXTT16=
EXTT17=
EXTT18=
EXTT19=
EXTT20=
EXTT21=
EXTT22=
PLAYORDER=
